<mxfile host="app.diagrams.net" agent="Mozilla/5.0 (Windows NT 10.0; Win64; x64) AppleWebKit/537.36 (KHTML, like Gecko) Chrome/137.0.0.0 Safari/537.36" version="27.1.3">
  <diagram name="Страница — 1" id="8J1UHR_uVFIwEin5-jyG">
    <mxGraphModel dx="3116" dy="1764" grid="0" gridSize="10" guides="1" tooltips="1" connect="1" arrows="1" fold="1" page="0" pageScale="1" pageWidth="827" pageHeight="1169" math="0" shadow="0">
      <root>
        <mxCell id="0" />
        <mxCell id="1" parent="0" />
        <mxCell id="nA0-Ui3EcILYC63hEK4_-24" value="" style="shape=cube;whiteSpace=wrap;html=1;boundedLbl=1;backgroundOutline=1;darkOpacity=0;size=20;noLabel=0;shadow=0;direction=east;flipH=1;" parent="1" vertex="1">
          <mxGeometry x="117" y="10" width="452.1" height="244" as="geometry" />
        </mxCell>
        <mxCell id="nA0-Ui3EcILYC63hEK4_-11" value="&lt;br&gt;&lt;div&gt;&lt;br/&gt;&lt;/div&gt;" style="shape=cube;whiteSpace=wrap;html=1;boundedLbl=1;backgroundOutline=1;darkOpacity=0;size=20;noLabel=0;shadow=0;direction=east;flipH=1;" parent="1" vertex="1">
          <mxGeometry x="-96" y="-391" width="1508" height="697" as="geometry" />
        </mxCell>
        <mxCell id="gcMM5cCsYAQRM_Y5A-3i-26" value="&lt;br&gt;&lt;div&gt;&lt;br/&gt;&lt;/div&gt;" style="shape=cube;whiteSpace=wrap;html=1;boundedLbl=1;backgroundOutline=1;darkOpacity=0;size=20;noLabel=0;shadow=0;direction=east;flipH=1;" parent="1" vertex="1">
          <mxGeometry x="-71.5" y="-297" width="1406.5" height="572" as="geometry" />
        </mxCell>
        <mxCell id="gcMM5cCsYAQRM_Y5A-3i-27" value="&lt;span style=&quot;font-weight: 400;&quot;&gt;Docker-compose 27.3.1&lt;/span&gt;" style="text;strokeColor=none;fillColor=none;html=1;fontSize=24;fontStyle=1;verticalAlign=middle;align=center;" parent="1" vertex="1">
          <mxGeometry x="33" y="-264" width="100" height="40" as="geometry" />
        </mxCell>
        <mxCell id="RzY-j4tmtQSygtIVZ8jP-14" value="&lt;span style=&quot;font-weight: 400;&quot;&gt;TCP&lt;/span&gt;" style="text;strokeColor=none;fillColor=none;html=1;fontSize=24;fontStyle=1;verticalAlign=middle;align=center;" parent="1" vertex="1">
          <mxGeometry x="604" y="35.39" width="100" height="40" as="geometry" />
        </mxCell>
        <mxCell id="nA0-Ui3EcILYC63hEK4_-1" value="" style="shape=cube;whiteSpace=wrap;html=1;boundedLbl=1;backgroundOutline=1;darkOpacity=0;size=20;noLabel=0;shadow=0;direction=east;flipH=1;" parent="1" vertex="1">
          <mxGeometry x="-658" y="-5.740000000000002" width="406" height="244" as="geometry" />
        </mxCell>
        <mxCell id="nA0-Ui3EcILYC63hEK4_-2" value="&lt;span style=&quot;font-weight: 400;&quot;&gt;Browser&lt;/span&gt;" style="text;strokeColor=none;fillColor=none;html=1;fontSize=24;fontStyle=1;verticalAlign=middle;align=center;" parent="1" vertex="1">
          <mxGeometry x="-505" y="20.259999999999998" width="100" height="40" as="geometry" />
        </mxCell>
        <mxCell id="nA0-Ui3EcILYC63hEK4_-3" value="&lt;span style=&quot;font-weight: 400;&quot;&gt;Google Chrome&amp;nbsp;131.0.6778.205&lt;/span&gt;" style="text;strokeColor=none;fillColor=none;html=1;fontSize=24;fontStyle=1;verticalAlign=middle;align=center;" parent="1" vertex="1">
          <mxGeometry x="-505" y="54.649999999999984" width="100" height="40" as="geometry" />
        </mxCell>
        <mxCell id="nA0-Ui3EcILYC63hEK4_-4" value="" style="group" parent="1" vertex="1" connectable="0">
          <mxGeometry x="-615.54" y="94.64999999999998" width="319.49" height="126.61000000000001" as="geometry" />
        </mxCell>
        <mxCell id="nA0-Ui3EcILYC63hEK4_-5" value="&lt;span style=&quot;color: rgba(0, 0, 0, 0); font-family: monospace; font-size: 0px; text-align: start;&quot;&gt;%3CmxGraphModel%3E%3Croot%3E%3CmxCell%20id%3D%220%22%2F%3E%3CmxCell%20id%3D%221%22%20parent%3D%220%22%2F%3E%3CmxCell%20id%3D%222%22%20value%3D%22%26lt%3Bspan%20style%3D%26quot%3Bfont-weight%3A%20400%3B%26quot%3B%26gt%3BDocker-compose%26lt%3B%2Fspan%26gt%3B%22%20style%3D%22text%3BstrokeColor%3Dnone%3BfillColor%3Dnone%3Bhtml%3D1%3BfontSize%3D24%3BfontStyle%3D1%3BverticalAlign%3Dmiddle%3Balign%3Dcenter%3B%22%20vertex%3D%221%22%20parent%3D%221%22%3E%3CmxGeometry%20x%3D%22-14%22%20y%3D%22-594%22%20width%3D%22100%22%20height%3D%2240%22%20as%3D%22geometry%22%2F%3E%3C%2FmxCell%3E%3C%2Froot%3E%3C%2FmxGraphModel%3E&lt;/span&gt;" style="verticalLabelPosition=bottom;verticalAlign=top;html=1;shape=mxgraph.basic.rect;fillColor2=none;strokeWidth=1;size=20;indent=5;" parent="nA0-Ui3EcILYC63hEK4_-4" vertex="1">
          <mxGeometry x="23.49000000000001" width="296" height="126.61" as="geometry" />
        </mxCell>
        <mxCell id="nA0-Ui3EcILYC63hEK4_-6" value="" style="verticalLabelPosition=bottom;verticalAlign=top;html=1;shape=mxgraph.basic.rect;fillColor2=none;strokeWidth=1;size=20;indent=5;" parent="nA0-Ui3EcILYC63hEK4_-4" vertex="1">
          <mxGeometry y="17" width="49" height="23" as="geometry" />
        </mxCell>
        <mxCell id="nA0-Ui3EcILYC63hEK4_-7" value="" style="verticalLabelPosition=bottom;verticalAlign=top;html=1;shape=mxgraph.basic.rect;fillColor2=none;strokeWidth=1;size=20;indent=5;" parent="nA0-Ui3EcILYC63hEK4_-4" vertex="1">
          <mxGeometry y="53.610000000000014" width="49" height="23" as="geometry" />
        </mxCell>
        <mxCell id="nA0-Ui3EcILYC63hEK4_-8" value="&lt;span style=&quot;font-weight: 400;&quot;&gt;Axios 1.7.7&lt;/span&gt;" style="text;strokeColor=none;fillColor=none;html=1;fontSize=24;fontStyle=1;verticalAlign=middle;align=center;" parent="nA0-Ui3EcILYC63hEK4_-4" vertex="1">
          <mxGeometry x="68.4899999999999" y="76.61000000000001" width="100" height="40" as="geometry" />
        </mxCell>
        <mxCell id="nA0-Ui3EcILYC63hEK4_-9" value="&lt;span style=&quot;font-weight: 400;&quot;&gt;Redux: 5.0.1&lt;/span&gt;" style="text;strokeColor=none;fillColor=none;html=1;fontSize=24;fontStyle=1;verticalAlign=middle;align=center;" parent="nA0-Ui3EcILYC63hEK4_-4" vertex="1">
          <mxGeometry x="77.53999999999999" y="40" width="100" height="40" as="geometry" />
        </mxCell>
        <mxCell id="nA0-Ui3EcILYC63hEK4_-10" value="&lt;span style=&quot;font-weight: 400;&quot;&gt;ReactJS 18.3.1&lt;/span&gt;" style="text;strokeColor=none;fillColor=none;html=1;fontSize=24;fontStyle=1;verticalAlign=middle;align=center;" parent="nA0-Ui3EcILYC63hEK4_-4" vertex="1">
          <mxGeometry x="89.4899999999999" y="3.6100000000000136" width="100" height="40" as="geometry" />
        </mxCell>
        <mxCell id="nA0-Ui3EcILYC63hEK4_-12" value="&lt;font style=&quot;font-size: 24px;&quot;&gt;Windows Server 2025&lt;/font&gt;" style="text;html=1;align=center;verticalAlign=middle;whiteSpace=wrap;rounded=0;" parent="1" vertex="1">
          <mxGeometry x="516" y="-350" width="284" height="30" as="geometry" />
        </mxCell>
        <mxCell id="gcMM5cCsYAQRM_Y5A-3i-72" value="" style="shape=cube;whiteSpace=wrap;html=1;boundedLbl=1;backgroundOutline=1;darkOpacity=0;size=20;noLabel=0;shadow=0;direction=east;flipH=1;" parent="1" vertex="1">
          <mxGeometry x="44" y="-165" width="511.1" height="396" as="geometry" />
        </mxCell>
        <mxCell id="gcMM5cCsYAQRM_Y5A-3i-60" value="&lt;span style=&quot;font-weight: 400;&quot;&gt;Docker Container 27.3.1 /&amp;nbsp;&lt;/span&gt;&lt;span style=&quot;font-weight: 400;&quot;&gt;Linux&amp;nbsp;&lt;/span&gt;&lt;div&gt;&lt;span style=&quot;font-weight: 400;&quot;&gt;Ubuntu 22.04 LTS&lt;/span&gt;&lt;/div&gt;" style="text;strokeColor=none;fillColor=none;html=1;fontSize=24;fontStyle=1;verticalAlign=middle;align=center;" parent="1" vertex="1">
          <mxGeometry x="249.54999999999995" y="-130.000101010101" width="100" height="43.131313131313135" as="geometry" />
        </mxCell>
        <mxCell id="gcMM5cCsYAQRM_Y5A-3i-63" value="&lt;span style=&quot;color: rgba(0, 0, 0, 0); font-family: monospace; font-size: 0px; text-align: start;&quot;&gt;%3CmxGraphModel%3E%3Croot%3E%3CmxCell%20id%3D%220%22%2F%3E%3CmxCell%20id%3D%221%22%20parent%3D%220%22%2F%3E%3CmxCell%20id%3D%222%22%20value%3D%22%26lt%3Bspan%20style%3D%26quot%3Bfont-weight%3A%20400%3B%26quot%3B%26gt%3BDocker-compose%26lt%3B%2Fspan%26gt%3B%22%20style%3D%22text%3BstrokeColor%3Dnone%3BfillColor%3Dnone%3Bhtml%3D1%3BfontSize%3D24%3BfontStyle%3D1%3BverticalAlign%3Dmiddle%3Balign%3Dcenter%3B%22%20vertex%3D%221%22%20parent%3D%221%22%3E%3CmxGeometry%20x%3D%22-14%22%20y%3D%22-594%22%20width%3D%22100%22%20height%3D%2240%22%20as%3D%22geometry%22%2F%3E%3C%2FmxCell%3E%3C%2Froot%3E%3C%2FmxGraphModel%3E&lt;/span&gt;" style="verticalLabelPosition=bottom;verticalAlign=top;html=1;shape=mxgraph.basic.rect;fillColor2=none;strokeWidth=1;size=20;indent=5;" parent="1" vertex="1">
          <mxGeometry x="156.49" y="30.999999999999996" width="296" height="160.27" as="geometry" />
        </mxCell>
        <mxCell id="gcMM5cCsYAQRM_Y5A-3i-64" value="" style="verticalLabelPosition=bottom;verticalAlign=top;html=1;shape=mxgraph.basic.rect;fillColor2=none;strokeWidth=1;size=20;indent=5;" parent="1" vertex="1">
          <mxGeometry x="133" y="49.334166666666675" width="49" height="24.800505050505052" as="geometry" />
        </mxCell>
        <mxCell id="gcMM5cCsYAQRM_Y5A-3i-65" value="" style="verticalLabelPosition=bottom;verticalAlign=top;html=1;shape=mxgraph.basic.rect;fillColor2=none;strokeWidth=1;size=20;indent=5;" parent="1" vertex="1">
          <mxGeometry x="133" y="88.81010101010102" width="49" height="24.800505050505052" as="geometry" />
        </mxCell>
        <mxCell id="nA0-Ui3EcILYC63hEK4_-40" value="" style="shape=cube;whiteSpace=wrap;html=1;boundedLbl=1;backgroundOutline=1;darkOpacity=0;size=20;noLabel=0;shadow=0;direction=east;flipH=1;" parent="1" vertex="1">
          <mxGeometry x="742" y="-172" width="479" height="396" as="geometry" />
        </mxCell>
        <mxCell id="RzY-j4tmtQSygtIVZ8jP-12" value="" style="group" parent="1" vertex="1" connectable="0">
          <mxGeometry x="718" y="20.61" width="423" height="341.58" as="geometry" />
        </mxCell>
        <mxCell id="gcMM5cCsYAQRM_Y5A-3i-2" value="" style="strokeWidth=2;html=1;shape=mxgraph.flowchart.database;whiteSpace=wrap;" parent="RzY-j4tmtQSygtIVZ8jP-12" vertex="1">
          <mxGeometry x="99.34" y="25.48" width="323.66" height="144.52" as="geometry" />
        </mxCell>
        <mxCell id="RzY-j4tmtQSygtIVZ8jP-6" value="&lt;blockquote style=&quot;margin: 0 0 0 40px; border: none; padding: 0px;&quot;&gt;&lt;span style=&quot;font-weight: 400;&quot;&gt;MariaDB 11.5.2&lt;/span&gt;&lt;/blockquote&gt;" style="text;strokeColor=none;fillColor=none;html=1;fontSize=24;fontStyle=1;verticalAlign=middle;align=center;" parent="RzY-j4tmtQSygtIVZ8jP-12" vertex="1">
          <mxGeometry x="210.00397926366816" y="97.99556670244101" width="77.29083665338645" height="22.342781724477284" as="geometry" />
        </mxCell>
        <mxCell id="nA0-Ui3EcILYC63hEK4_-46" style="rounded=0;orthogonalLoop=1;jettySize=auto;html=1;endArrow=classic;endFill=1;startArrow=classic;startFill=1;endSize=10;startSize=10;" parent="1" source="nA0-Ui3EcILYC63hEK4_-1" edge="1">
          <mxGeometry relative="1" as="geometry">
            <mxPoint x="44" y="117.25999999999999" as="targetPoint" />
          </mxGeometry>
        </mxCell>
        <mxCell id="nA0-Ui3EcILYC63hEK4_-48" value="&lt;font style=&quot;font-size: 24px;&quot;&gt;HTTPS&amp;nbsp; 1.1&lt;/font&gt;" style="text;html=1;align=center;verticalAlign=middle;whiteSpace=wrap;rounded=0;" parent="1" vertex="1">
          <mxGeometry x="-238" y="80.08" width="135.6" height="30" as="geometry" />
        </mxCell>
        <mxCell id="nA0-Ui3EcILYC63hEK4_-50" style="rounded=0;orthogonalLoop=1;jettySize=auto;html=1;entryX=1.004;entryY=0.634;entryDx=0;entryDy=0;entryPerimeter=0;endSize=10;startSize=10;startArrow=classic;startFill=1;" parent="1" target="nA0-Ui3EcILYC63hEK4_-40" edge="1">
          <mxGeometry relative="1" as="geometry">
            <mxPoint x="559" y="78" as="sourcePoint" />
          </mxGeometry>
        </mxCell>
        <mxCell id="TDa4z69N_0sCTk_hAj0a-44" value="" style="shape=cube;whiteSpace=wrap;html=1;boundedLbl=1;backgroundOutline=1;darkOpacity=0;size=20;noLabel=0;shadow=0;direction=east;flipH=1;" parent="1" vertex="1">
          <mxGeometry x="123" y="417" width="312.2" height="182.84" as="geometry" />
        </mxCell>
        <mxCell id="TDa4z69N_0sCTk_hAj0a-45" value="&lt;blockquote style=&quot;margin: 0 0 0 40px; border: none; padding: 0px;&quot;&gt;&lt;span style=&quot;font-weight: 400;&quot;&gt;Stripe 17.&lt;/span&gt;&lt;span style=&quot;font-weight: 400; background-color: transparent; color: light-dark(rgb(0, 0, 0), rgb(255, 255, 255));&quot;&gt;4.0&lt;/span&gt;&lt;/blockquote&gt;" style="text;strokeColor=none;fillColor=none;html=1;fontSize=24;fontStyle=1;verticalAlign=middle;align=center;" parent="1" vertex="1">
          <mxGeometry x="123" y="492.37" width="269" height="43.13" as="geometry" />
        </mxCell>
        <mxCell id="TDa4z69N_0sCTk_hAj0a-46" style="rounded=0;orthogonalLoop=1;jettySize=auto;html=1;endArrow=classic;endFill=1;startArrow=classic;startFill=1;endSize=10;startSize=10;entryX=0;entryY=0;entryDx=265.54999999999995;entryDy=396;entryPerimeter=0;exitX=0;exitY=0;exitDx=146.1;exitDy=0;exitPerimeter=0;" parent="1" source="TDa4z69N_0sCTk_hAj0a-44" target="gcMM5cCsYAQRM_Y5A-3i-72" edge="1">
          <mxGeometry relative="1" as="geometry">
            <mxPoint x="-251.8" y="479" as="sourcePoint" />
            <mxPoint x="74.33599999999979" y="479.1980000000001" as="targetPoint" />
          </mxGeometry>
        </mxCell>
        <mxCell id="lEqDUExAr_G7bIhA3_n9-3" value="" style="shape=cube;whiteSpace=wrap;html=1;boundedLbl=1;backgroundOutline=1;darkOpacity=0;size=20;noLabel=0;shadow=0;direction=east;flipH=1;" parent="1" vertex="1">
          <mxGeometry x="-564.2" y="-227.99999999999994" width="312.2" height="182.84" as="geometry" />
        </mxCell>
        <mxCell id="lEqDUExAr_G7bIhA3_n9-4" value="&lt;blockquote style=&quot;margin: 0 0 0 40px; border: none; padding: 0px;&quot;&gt;&lt;span style=&quot;font-weight: 400;&quot;&gt;Gemini 2.0-flash&lt;/span&gt;&lt;/blockquote&gt;" style="text;strokeColor=none;fillColor=none;html=1;fontSize=24;fontStyle=1;verticalAlign=middle;align=left;" parent="1" vertex="1">
          <mxGeometry x="-528.8" y="-153.63" width="92" height="43.13" as="geometry" />
        </mxCell>
        <mxCell id="lEqDUExAr_G7bIhA3_n9-5" style="rounded=0;orthogonalLoop=1;jettySize=auto;html=1;endArrow=classic;endFill=1;startArrow=classic;startFill=1;endSize=10;startSize=10;exitX=-0.001;exitY=0.651;exitDx=0;exitDy=0;exitPerimeter=0;" parent="1" source="lEqDUExAr_G7bIhA3_n9-3" edge="1">
          <mxGeometry relative="1" as="geometry">
            <mxPoint x="-248" y="-109" as="sourcePoint" />
            <mxPoint x="44" y="-108.66999999999997" as="targetPoint" />
          </mxGeometry>
        </mxCell>
        <mxCell id="lEqDUExAr_G7bIhA3_n9-6" value="&lt;font style=&quot;font-size: 24px;&quot;&gt;HTTPS 1.1&lt;/font&gt;" style="text;html=1;align=center;verticalAlign=middle;whiteSpace=wrap;rounded=0;" parent="1" vertex="1">
          <mxGeometry x="-234" y="-147.05999999999997" width="129" height="30" as="geometry" />
        </mxCell>
        <mxCell id="u1euAwldg8TamIDWGlKb-4" value="&lt;span style=&quot;font-weight: 400;&quot;&gt;Docker Container 27.3.1 /&amp;nbsp;&lt;/span&gt;&lt;span style=&quot;font-weight: 400;&quot;&gt;Linux&amp;nbsp;&lt;/span&gt;&lt;div&gt;&lt;span style=&quot;font-weight: 400;&quot;&gt;Ubuntu 22.04 LTS&lt;/span&gt;&lt;/div&gt;" style="text;strokeColor=none;fillColor=none;html=1;fontSize=24;fontStyle=1;verticalAlign=middle;align=center;" parent="1" vertex="1">
          <mxGeometry x="931.5" y="-134" width="100" height="43.131313131313135" as="geometry" />
        </mxCell>
        <mxCell id="gcMM5cCsYAQRM_Y5A-3i-66" value="&lt;blockquote style=&quot;margin: 0 0 0 40px; border: none; padding: 0px;&quot;&gt;&lt;span style=&quot;font-weight: 400;&quot;&gt;ASP .NET Core&lt;/span&gt;&lt;/blockquote&gt;" style="text;strokeColor=none;fillColor=none;html=1;fontSize=24;fontStyle=1;verticalAlign=middle;align=center;" parent="1" vertex="1">
          <mxGeometry x="203.9999999999999" y="32.78335858585858" width="100" height="43.131313131313135" as="geometry" />
        </mxCell>
        <mxCell id="gcMM5cCsYAQRM_Y5A-3i-67" value="&lt;span style=&quot;font-weight: 400;&quot;&gt;.NET 8&lt;/span&gt;" style="text;strokeColor=none;fillColor=none;html=1;fontSize=24;fontStyle=1;verticalAlign=middle;align=center;" parent="1" vertex="1">
          <mxGeometry x="175.9999999999999" y="63.08444444444446" width="100" height="43.131313131313135" as="geometry" />
        </mxCell>
        <mxCell id="gcMM5cCsYAQRM_Y5A-3i-68" value="&lt;span style=&quot;font-weight: 400;&quot;&gt;Entity Framework 8.0.2&lt;/span&gt;" style="text;strokeColor=none;fillColor=none;html=1;fontSize=24;fontStyle=1;verticalAlign=middle;align=center;" parent="1" vertex="1">
          <mxGeometry x="262.9999999999999" y="94.61292929292931" width="100" height="43.131313131313135" as="geometry" />
        </mxCell>
        <mxCell id="tgBLUKYaitHxNRPMTOz2-2" value="&lt;span style=&quot;font-weight: 400;&quot;&gt;X.509&lt;/span&gt;" style="text;strokeColor=none;fillColor=none;html=1;fontSize=24;fontStyle=1;verticalAlign=middle;align=center;" parent="1" vertex="1">
          <mxGeometry x="171.2999999999999" y="125.20292929292934" width="100" height="43.131313131313135" as="geometry" />
        </mxCell>
        <mxCell id="33wMSBF-76l6xUe3oH2e-1" value="&lt;font style=&quot;font-size: 24px;&quot;&gt;HTTPS 1.1&lt;/font&gt;" style="text;html=1;align=center;verticalAlign=middle;whiteSpace=wrap;rounded=0;" parent="1" vertex="1">
          <mxGeometry x="156.8" y="332.19" width="129" height="30" as="geometry" />
        </mxCell>
        <mxCell id="33wMSBF-76l6xUe3oH2e-5" value="" style="shape=cube;whiteSpace=wrap;html=1;boundedLbl=1;backgroundOutline=1;darkOpacity=0;size=20;noLabel=0;shadow=0;direction=east;flipH=1;" parent="1" vertex="1">
          <mxGeometry x="-631.0000000000001" y="417" width="312.2" height="182.84" as="geometry" />
        </mxCell>
        <mxCell id="33wMSBF-76l6xUe3oH2e-6" style="rounded=0;orthogonalLoop=1;jettySize=auto;html=1;endArrow=classic;endFill=1;startArrow=classic;startFill=1;endSize=10;startSize=10;exitX=0;exitY=0;exitDx=146.1;exitDy=0;exitPerimeter=0;entryX=0;entryY=0;entryDx=213;entryDy=244;entryPerimeter=0;" parent="1" source="33wMSBF-76l6xUe3oH2e-5" target="nA0-Ui3EcILYC63hEK4_-1" edge="1">
          <mxGeometry relative="1" as="geometry">
            <mxPoint x="-821" y="128.99999999999994" as="sourcePoint" />
            <mxPoint x="-658" y="129" as="targetPoint" />
          </mxGeometry>
        </mxCell>
        <mxCell id="33wMSBF-76l6xUe3oH2e-7" value="&lt;font style=&quot;font-size: 24px;&quot;&gt;HTTPS 1.1&lt;/font&gt;" style="text;html=1;align=center;verticalAlign=middle;whiteSpace=wrap;rounded=0;" parent="1" vertex="1">
          <mxGeometry x="-596" y="332.18999999999994" width="129" height="30" as="geometry" />
        </mxCell>
        <mxCell id="33wMSBF-76l6xUe3oH2e-8" value="&lt;blockquote style=&quot;margin: 0 0 0 40px; border: none; padding: 0px;&quot;&gt;&lt;span style=&quot;font-weight: 400;&quot;&gt;OpenStreetMap 0.6&lt;/span&gt;&lt;/blockquote&gt;" style="text;strokeColor=none;fillColor=none;html=1;fontSize=24;fontStyle=1;verticalAlign=middle;align=left;" parent="1" vertex="1">
          <mxGeometry x="-630.8000000000001" y="494.21" width="290" height="43.13" as="geometry" />
        </mxCell>
        <mxCell id="DTJj2VyRe2DUwXdU1-Mm-1" value="&lt;span style=&quot;font-weight: 400;&quot;&gt;Bundle.js&lt;/span&gt;" style="text;strokeColor=none;fillColor=none;html=1;fontSize=24;fontStyle=1;verticalAlign=middle;align=center;" parent="1" vertex="1">
          <mxGeometry x="188" y="153.10000000000002" width="100" height="43.131313131313135" as="geometry" />
        </mxCell>
      </root>
    </mxGraphModel>
  </diagram>
</mxfile>
